HIERARCHY
ROOT Hips
{
	OFFSET 0.000000 0.000000 0.000000
	CHANNELS 6 Xposition Yposition Zposition Xrotation Yrotation Zrotation
	JOINT LeftUpLeg_virtual
	{
		OFFSET 0.000000 0.000000 0.000000
		CHANNELS 3 Xrotation Yrotation Zrotation
		JOINT LeftUpLeg
		{
			OFFSET 11.394100 -6.187798 -0.413800
			CHANNELS 3 Xrotation Yrotation Zrotation
			JOINT LeftLeg
			{
				OFFSET 0.430247 -32.302673 3.732800
				CHANNELS 3 Xrotation Yrotation Zrotation
				JOINT LeftFoot
				{
					OFFSET -0.430247 -48.264931 -6.423300
					CHANNELS 3 Xrotation Yrotation Zrotation
					JOINT LeftToeBase
					{
						OFFSET 4.230900 -16.068199 23.438400
						CHANNELS 3 Xrotation Yrotation Zrotation
						JOINT LeftToe_End
						{
							OFFSET 4.510700 0.695400 19.974600
							CHANNELS 3 Xrotation Yrotation Zrotation
							End Site
							{
								OFFSET 0 0 0
							}
						}
					}
				}
			}
		}
	}
	JOINT RightUpLeg_virtual
	{
		OFFSET 0.000000 0.000000 0.000000
		CHANNELS 3 Xrotation Yrotation Zrotation
		JOINT RightUpLeg
		{
			OFFSET -11.333700 -6.187798 -0.413800
			CHANNELS 3 Xrotation Yrotation Zrotation
			JOINT RightLeg
			{
				OFFSET -0.430392 -32.302628 3.733000
				CHANNELS 3 Xrotation Yrotation Zrotation
				JOINT RightFoot
				{
					OFFSET 0.430392 -48.264973 -6.423500
					CHANNELS 3 Xrotation Yrotation Zrotation
					JOINT RightToeBase
					{
						OFFSET -4.230900 -16.068199 23.438400
						CHANNELS 3 Xrotation Yrotation Zrotation
						JOINT RightToe_End
						{
							OFFSET -4.510700 0.695400 19.974600
							CHANNELS 3 Xrotation Yrotation Zrotation
							End Site
							{
								OFFSET 0 0 0
							}
						}
					}
				}
			}
		}
	}
	JOINT Spine_virtual
	{
		OFFSET 0.000000 0.000000 0.000000
		CHANNELS 3 Xrotation Yrotation Zrotation
		JOINT Spine
		{
			OFFSET -0.002400 12.777504 0.315300
			CHANNELS 3 Xrotation Yrotation Zrotation
			JOINT Spine1
			{
				OFFSET -0.002067 5.816869 0.032633
				CHANNELS 3 Xrotation Yrotation Zrotation
				JOINT Spine1_split
				{
					OFFSET -0.002067 5.816869 0.032633
					CHANNELS 3 Xrotation Yrotation Zrotation
					JOINT Spine2
					{
						OFFSET -0.002067 5.816869 0.032633
						CHANNELS 3 Xrotation Yrotation Zrotation
						JOINT Neck_virtual
						{
							OFFSET 0.000000 0.000000 0.000000
							CHANNELS 3 Xrotation Yrotation Zrotation
							JOINT Neck
							{
								OFFSET -0.003700 21.199493 -0.826900
								CHANNELS 3 Xrotation Yrotation Zrotation
								JOINT Head
								{
									OFFSET 0.000000 20.442200 4.834800
									CHANNELS 3 Xrotation Yrotation Zrotation
									JOINT HeadTop_End
									{
										OFFSET 0.000000 34.668396 4.968400
										CHANNELS 3 Xrotation Yrotation Zrotation
										End Site
										{
											OFFSET 0 0 0
										}
									}
								}
							}
						}
						JOINT LeftShoulder_virtual
						{
							OFFSET 0.000000 0.000000 0.000000
							CHANNELS 3 Xrotation Yrotation Zrotation
							JOINT LeftShoulder
							{
								OFFSET 3.288150 8.794197 -1.372250
								CHANNELS 3 Xrotation Yrotation Zrotation
								JOINT LeftShoulder_split
								{
									OFFSET 3.288150 8.794197 -1.372250
									CHANNELS 3 Xrotation Yrotation Zrotation
									JOINT LeftArm
									{
										OFFSET 11.953299 -2.279007 -0.146200
										CHANNELS 3 Xrotation Yrotation Zrotation
										JOINT LeftForeArm
										{
											OFFSET 18.448900 0.000000 0.000000
											CHANNELS 3 Xrotation Yrotation Zrotation
											JOINT LeftHand
											{
												OFFSET 29.527798 0.000000 0.000000
												CHANNELS 3 Xrotation Yrotation Zrotation
												End Site
												{
													OFFSET 0 0 0
												}
											}
										}
									}
								}
							}
						}
						JOINT RightShoulder_virtual
						{
							OFFSET 0.000000 0.000000 0.000000
							CHANNELS 3 Xrotation Yrotation Zrotation
							JOINT RightShoulder
							{
								OFFSET -3.249400 8.794197 -1.372250
								CHANNELS 3 Xrotation Yrotation Zrotation
								JOINT RightShoulder_split
								{
									OFFSET -3.249400 8.794197 -1.372250
									CHANNELS 3 Xrotation Yrotation Zrotation
									JOINT RightArm
									{
										OFFSET -11.953299 -2.279007 -0.146200
										CHANNELS 3 Xrotation Yrotation Zrotation
										JOINT RightForeArm
										{
											OFFSET -18.448900 0.000000 0.000000
											CHANNELS 3 Xrotation Yrotation Zrotation
											JOINT RightHand
											{
												OFFSET -29.527802 0.000000 0.000000
												CHANNELS 3 Xrotation Yrotation Zrotation
												End Site
												{
													OFFSET 0 0 0
												}
											}
										}
									}
								}
							}
						}
					}
				}
			}
		}
	}
}
MOTION
Frames: 8
Frame Time: 0.03333333
-3.302433 93.287247 16.828615 0.000000 0.000000 0.000000 -3.939125 -12.641533 -1.350375 -33.888615 -1.533478 2.358382 43.961601 -2.373186 -2.684346 -6.214965 -6.147304 0.612281 -0.123848 0.120131 0.155337 0.000000 0.000000 0.000000 -3.939125 -12.641533 -1.350375 -26.574615 4.094567 1.633036 47.904788 11.719863 -6.780366 -17.711008 2.771917 0.688969 -2.565220 1.811855 2.588677 0.000000 0.000000 0.000000 -3.939125 -12.641533 -1.350375 5.726232 1.036865 -0.421210 4.742728 -0.034709 0.014577 0.000000 0.000000 0.000000 0.000000 0.000000 0.000000 10.263422 25.788720 -3.323035 3.214657 7.303392 0.249759 4.005156 60.914243 -6.734867 0.000000 0.000000 0.000000 10.263422 25.788720 -3.323035 8.936038 -24.743224 -2.968074 0.000000 0.000000 0.000000 -31.923580 13.247189 -57.689437 -91.207150 12.809555 -86.343823 0.000000 0.000000 0.000000 10.263422 25.788720 -3.323035 10.515580 19.507449 -2.043898 0.000000 0.000000 0.000000 -4.524353 39.703384 48.810352 -102.228322 64.578797 87.596705 0.000000 0.000000 0.000000 
-4.916003 93.878853 16.843048 0.000000 0.000000 0.000000 -3.720355 -9.823193 -1.154983 -32.968210 -3.593290 1.983029 41.941968 -3.168576 -2.423683 -5.502989 -6.183382 -0.510581 -0.128936 0.124053 0.161730 0.000000 0.000000 0.000000 -3.720355 -9.823193 -1.154983 -25.652100 3.530034 0.206922 45.274028 9.683876 -3.728678 -16.370794 3.854274 0.910417 -1.112973 1.816860 1.373158 0.000000 0.000000 0.000000 -3.720355 -9.823193 -1.154983 5.734860 1.084862 -0.483407 4.739113 -0.064816 0.012273 0.000000 0.000000 0.000000 0.000000 0.000000 0.000000 10.292012 26.036300 -3.377461 3.202053 7.206171 0.255002 3.577873 59.991648 -6.564263 0.000000 0.000000 0.000000 10.292012 26.036300 -3.377461 8.936043 -24.743274 -2.968062 0.000000 0.000000 0.000000 -31.852847 14.094144 -57.493636 -91.088632 12.819916 -86.878627 0.000000 0.000000 0.000000 10.292012 26.036300 -3.377461 10.514880 19.496060 -2.041468 0.000000 0.000000 0.000000 -4.648028 40.347778 49.038969 -102.338145 64.567383 87.720618 0.000000 0.000000 0.000000 
-6.525080 94.427475 16.722818 0.000000 0.000000 0.000000 -3.525868 -6.812452 -0.902365 -32.160034 -5.513989 1.634451 39.694085 -4.756911 -2.230061 -4.527885 -5.722963 -1.492256 -0.132856 0.128170 0.166667 0.000000 0.000000 0.000000 -3.525868 -6.812452 -0.902365 -24.403602 1.810154 -0.308876 43.676925 8.438036 -2.618660 -15.994334 4.101047 -0.001238 1.386119 2.196477 1.768491 0.000000 0.000000 0.000000 -3.525868 -6.812452 -0.902365 5.727235 1.134460 -0.561060 4.738550 -0.077031 0.013274 0.000000 0.000000 0.000000 0.000000 0.000000 0.000000 10.277606 25.957784 -3.363604 3.181541 7.089881 0.250239 3.168557 58.869148 -6.463693 0.000000 0.000000 0.000000 10.277606 25.957784 -3.363604 8.936030 -24.743204 -2.968080 0.000000 0.000000 0.000000 -31.626474 14.382063 -57.607858 -91.448713 12.658910 -87.264915 0.000000 0.000000 0.000000 10.277606 25.957784 -3.363604 10.515028 19.480680 -2.038390 0.000000 0.000000 0.000000 -4.644154 40.827435 49.316534 -102.775694 64.519825 87.913790 0.000000 0.000000 0.000000 
-7.942693 94.833794 16.347517 0.000000 0.000000 0.000000 -3.350070 -3.362599 -0.640873 -31.926411 -6.847581 1.928286 38.428458 -1.113675 -2.065985 -3.604062 -7.145834 -3.560342 -0.037958 0.169697 0.296776 0.000000 0.000000 0.000000 -3.350070 -3.362599 -0.640873 -23.511316 -0.054087 -0.712894 42.638159 6.726617 -1.867492 -15.870368 4.288586 -0.959762 1.507892 2.196333 1.924107 0.000000 0.000000 0.000000 -3.350070 -3.362599 -0.640873 5.692098 1.165831 -0.609466 4.741277 -0.063566 0.011808 0.000000 0.000000 0.000000 0.000000 0.000000 0.000000 10.218572 25.720437 -3.366810 3.145543 6.961898 0.230084 2.520919 56.815921 -6.333990 0.000000 0.000000 0.000000 10.218572 25.720437 -3.366810 8.936020 -24.743298 -2.968073 0.000000 0.000000 0.000000 -30.898304 14.479560 -58.235006 -92.469252 12.257920 -87.943760 0.000000 0.000000 0.000000 10.218572 25.720437 -3.366810 10.515775 19.488637 -2.040140 0.000000 0.000000 0.000000 -4.203959 41.444714 49.690309 -104.168697 64.357990 88.692479 0.000000 0.000000 0.000000 
-8.905220 95.041092 15.677174 0.000000 0.000000 0.000000 -3.208729 0.236125 -0.408297 -32.061833 -6.101317 3.689091 39.517330 4.220238 -1.748556 -3.787477 -8.403837 -6.411356 0.015464 1.376712 1.776021 0.000000 0.000000 0.000000 -3.208729 0.236125 -0.408297 -23.199018 -1.898950 -1.202458 42.055257 4.984585 -1.468719 -15.698725 4.332988 -1.284274 1.527724 2.196384 1.949461 0.000000 0.000000 0.000000 -3.208729 0.236125 -0.408297 5.642623 1.132840 -0.597142 4.742840 -0.031177 0.012462 0.000000 0.000000 0.000000 0.000000 0.000000 0.000000 10.132341 25.296032 -3.314822 3.099179 6.825531 0.198602 2.119824 54.992742 -6.372111 0.000000 0.000000 0.000000 10.132341 25.296032 -3.314822 8.936056 -24.743255 -2.968061 0.000000 0.000000 0.000000 -30.121691 13.909091 -59.238121 -94.009310 11.728187 -88.383515 0.000000 0.000000 0.000000 10.132341 25.296032 -3.314822 10.517509 19.488551 -2.040444 0.000000 0.000000 0.000000 -3.551523 41.866454 49.854811 -105.744558 64.148659 89.393366 0.000000 0.000000 0.000000 
-9.218602 95.072762 14.818089 0.000000 0.000000 0.000000 -3.135760 3.525720 -0.184087 -32.843405 -0.615788 7.596696 41.434882 4.835698 -1.547375 -3.645683 -9.784010 -6.879690 -1.164212 2.713626 2.086090 0.000000 0.000000 0.000000 -3.135760 3.525720 -0.184087 -23.405913 -3.591465 -2.008271 41.982663 3.616372 -1.384000 -15.551692 4.250797 -1.062896 1.523572 2.196397 1.944094 0.000000 0.000000 0.000000 -3.135760 3.525720 -0.184087 5.584943 1.090848 -0.559466 4.746373 0.062270 0.008096 0.000000 0.000000 0.000000 0.000000 0.000000 0.000000 9.966268 24.638461 -3.270647 3.044398 6.684012 0.159790 1.595147 52.253806 -6.318777 0.000000 0.000000 0.000000 9.966268 24.638461 -3.270647 8.936016 -24.743260 -2.968076 0.000000 0.000000 0.000000 -28.827544 13.312432 -60.681511 -95.667687 11.234377 -89.297811 0.000000 0.000000 0.000000 9.966268 24.638461 -3.270647 10.521505 19.523418 -2.048226 0.000000 0.000000 0.000000 -2.057252 42.071640 49.733882 -108.551773 63.714737 91.350522 0.000000 0.000000 0.000000 
-8.805169 94.945183 13.810814 0.000000 0.000000 0.000000 -3.178748 6.556051 0.118704 -33.896036 2.480571 10.877017 43.787028 5.439566 -1.706393 -2.995030 -9.215064 -7.055364 -3.119469 3.920514 1.697292 0.000000 0.000000 0.000000 -3.178748 6.556051 0.118704 -24.002837 -5.055384 -3.288125 42.422127 2.566546 -1.620654 -15.501055 4.043765 -0.256527 1.528292 2.196397 1.950143 0.000000 0.000000 0.000000 -3.178748 6.556051 0.118704 5.507810 1.008112 -0.422236 4.749422 0.112113 0.016025 0.000000 0.000000 0.000000 0.000000 0.000000 0.000000 9.809348 23.733558 -3.136701 3.018569 6.549226 0.074520 1.357422 50.250911 -6.444312 0.000000 0.000000 0.000000 9.809348 23.733558 -3.136701 8.936036 -24.743265 -2.968067 0.000000 0.000000 0.000000 -28.389301 11.750102 -61.846673 -97.506408 10.697249 -88.938495 0.000000 0.000000 0.000000 9.809348 23.733558 -3.136701 10.521865 19.580711 -2.059867 0.000000 0.000000 0.000000 -1.382902 41.903716 49.647580 -109.724728 63.517672 91.523982 0.000000 0.000000 0.000000 
-7.754045 94.664452 12.533558 0.000000 0.000000 0.000000 -3.385747 9.793550 0.580966 -35.321599 7.101349 16.317474 46.441212 6.961361 -1.822030 -1.954264 -8.393273 -8.387903 -5.098448 4.625616 1.640897 0.000000 0.000000 0.000000 -3.385747 9.793550 0.580966 -24.865970 -6.245136 -5.064663 43.279716 1.374161 -2.197516 -15.512500 3.673235 1.265440 1.535238 2.196421 1.959002 0.000000 0.000000 0.000000 -3.385747 9.793550 0.580966 5.385156 0.914389 -0.095666 4.776707 0.172995 -0.067192 0.000000 0.000000 0.000000 0.000000 0.000000 0.000000 9.638234 22.452937 -3.073848 2.983835 6.413095 0.003106 1.253325 47.670899 -6.443808 0.000000 0.000000 0.000000 9.638234 22.452937 -3.073848 8.936022 -24.743262 -2.968075 0.000000 0.000000 0.000000 -28.217755 9.901055 -62.955452 -99.128748 10.140771 -87.856771 0.000000 0.000000 0.000000 9.638234 22.452937 -3.073848 10.524435 19.580206 -2.060248 0.000000 0.000000 0.000000 -0.647246 41.524955 49.358413 -110.278691 63.417883 91.218215 0.000000 0.000000 0.000000 
